<svg id="Layer_1" xmlns="http://www.w3.org/2000/svg" viewBox="0 0 2048 2048"><style>.st0{fill:none;stroke:#333333;stroke-miterlimit:10;} .st1{fill:#333333;}</style><path class="st0" d="M1268.4 496.6c-66.5-66.5-154.9-103.1-248.9-103.1s-182.4 36.6-248.9 103.1-103.1 154.9-103.1 248.9h704c0-94-36.6-182.4-103.1-248.9z"/><path class="st1" d="M1499.5 745.5c0-64.8-12.7-127.6-37.7-186.9-24.2-57.2-58.8-108.5-102.8-152.6-44.1-44.1-95.4-78.7-152.6-102.8-59.2-25-122.1-37.7-186.9-37.7s-127.6 12.7-186.9 37.7C775.4 327.4 724.1 362 680 406c-44.1 44.1-78.7 95.4-102.8 152.6-25 59.2-37.7 122.1-37.7 186.9H129.6l332.3 960h1148.8l295.4-960h-406.6zM770.6 496.6c66.5-66.5 154.9-103.1 248.9-103.1s182.4 36.6 248.9 103.1 103.1 154.9 103.1 248.9h-704c0-94 36.6-182.4 103.1-248.9zm745.6 1080.9H553.1l-243.7-704h1423.5l-216.7 704z"/></svg>
